HIERARCHY
ROOT Hips
{
  OFFSET 0.307897 91.276 1.25051
  CHANNELS 6 Xposition Yposition Zposition Zrotation Xrotation Yrotation
  JOINT Spine
  {
    OFFSET 0 9.9235 -1.2273
    CHANNELS 6 Xposition Yposition Zposition Zrotation Xrotation Yrotation
    JOINT Spine1
    {
      OFFSET -0.0001 11.6454 -1.4223
      CHANNELS 6 Xposition Yposition Zposition Zrotation Xrotation Yrotation
      JOINT Spine2
      {
        OFFSET 0.0001 13.3602 -1.6265
        CHANNELS 6 Xposition Yposition Zposition Zrotation Xrotation Yrotation
        JOINT Neck
        {
          OFFSET 0 15.0325 0.7929
          CHANNELS 6 Xposition Yposition Zposition Zrotation Xrotation Yrotation
          JOINT Head
          {
            OFFSET 0 10.3218 3.1424
            CHANNELS 6 Xposition Yposition Zposition Zrotation Xrotation Yrotation
            JOINT HeadTop_End
            {
              OFFSET 0.0002 18.4747 6.6364
              CHANNELS 6 Xposition Yposition Zposition Zrotation Xrotation Yrotation
              End Site
              {
                OFFSET 0 0 0
              }
            }
            JOINT LeftEye
            {
              OFFSET 2.9479 7.6817 9.1207
              CHANNELS 6 Xposition Yposition Zposition Zrotation Xrotation Yrotation
              End Site
              {
                OFFSET 0 0 0
              }
            }
            JOINT RightEye
            {
              OFFSET -2.9445 7.6817 9.1205
              CHANNELS 6 Xposition Yposition Zposition Zrotation Xrotation Yrotation
              End Site
              {
                OFFSET 0 0 0
              }
            }
          }
        }
        JOINT LeftShoulder
        {
          OFFSET 6.1058 9.1104 0.7056
          CHANNELS 6 Xposition Yposition Zposition Zrotation Xrotation Yrotation
          JOINT LeftArm
          {
            OFFSET 12.655 -0.2659 -2.6009
            CHANNELS 6 Xposition Yposition Zposition Zrotation Xrotation Yrotation
            JOINT LeftForeArm
            {
              OFFSET 27.4047 0 0
              CHANNELS 6 Xposition Yposition Zposition Zrotation Xrotation Yrotation
              JOINT LeftHand
              {
                OFFSET 27.6145 0 0
                CHANNELS 6 Xposition Yposition Zposition Zrotation Xrotation Yrotation
                JOINT LeftHandMiddle1
                {
                  OFFSET 12.7755 0 0
                  CHANNELS 6 Xposition Yposition Zposition Zrotation Xrotation Yrotation
                  JOINT LeftHandMiddle2
                  {
                    OFFSET 3.614 0 0
                    CHANNELS 6 Xposition Yposition Zposition Zrotation Xrotation Yrotation
                    JOINT LeftHandMiddle3
                    {
                      OFFSET 3.4598 0 0
                      CHANNELS 6 Xposition Yposition Zposition Zrotation Xrotation Yrotation
                      End Site
                      {
                        OFFSET 3.6802 0 0
                      }
                    }
                  }
                }
                JOINT LeftHandThumb1
                {
                  OFFSET 3.7888 -2.167 3.0031
                  CHANNELS 6 Xposition Yposition Zposition Zrotation Xrotation Yrotation
                  JOINT LeftHandThumb2
                  {
                    OFFSET 3.6754 -2.122 2.122
                    CHANNELS 6 Xposition Yposition Zposition Zrotation Xrotation Yrotation
                    JOINT LeftHandThumb3
                    {
                      OFFSET 3.3944 -1.9597 1.9598
                      CHANNELS 6 Xposition Yposition Zposition Zrotation Xrotation Yrotation
                      End Site
                      {
                        OFFSET 2.6794 -1.5469 1.5469
                      }
                    }
                  }
                }
                JOINT LeftHandIndex1
                {
                  OFFSET 12.2666 -0.2317 2.8221
                  CHANNELS 6 Xposition Yposition Zposition Zrotation Xrotation Yrotation
                  JOINT LeftHandIndex2
                  {
                    OFFSET 3.892 0 0
                    CHANNELS 6 Xposition Yposition Zposition Zrotation Xrotation Yrotation
                    JOINT LeftHandIndex3
                    {
                      OFFSET 3.4152 0 0
                      CHANNELS 6 Xposition Yposition Zposition Zrotation Xrotation Yrotation
                      End Site
                      {
                        OFFSET 3.078 0 0
                      }
                    }
                  }
                }
                JOINT LeftHandRing1
                {
                  OFFSET 12.147 0.0099 -2.2166
                  CHANNELS 6 Xposition Yposition Zposition Zrotation Xrotation Yrotation
                  JOINT LeftHandRing2
                  {
                    OFFSET 3.6012 0 0
                    CHANNELS 6 Xposition Yposition Zposition Zrotation Xrotation Yrotation
                    JOINT LeftHandRing3
                    {
                      OFFSET 3.3073 0 0
                      CHANNELS 6 Xposition Yposition Zposition Zrotation Xrotation Yrotation
                      End Site
                      {
                        OFFSET 3.6601 0 0
                      }
                    }
                  }
                }
                JOINT LeftHandPinky1
                {
                  OFFSET 10.9082 -0.2264 -4.7258
                  CHANNELS 6 Xposition Yposition Zposition Zrotation Xrotation Yrotation
                  JOINT LeftHandPinky2
                  {
                    OFFSET 4.1367 0 0
                    CHANNELS 6 Xposition Yposition Zposition Zrotation Xrotation Yrotation
                    JOINT LeftHandPinky3
                    {
                      OFFSET 2.5948 0 0
                      CHANNELS 6 Xposition Yposition Zposition Zrotation Xrotation Yrotation
                      End Site
                      {
                        OFFSET 2.9239 0 0
                      }
                    }
                  }
                }
              }
            }
          }
        }
        JOINT RightShoulder
        {
          OFFSET -6.1057 9.1105 0.7056
          CHANNELS 6 Xposition Yposition Zposition Zrotation Xrotation Yrotation
          JOINT RightArm
          {
            OFFSET -12.655 -0.266 -2.6009
            CHANNELS 6 Xposition Yposition Zposition Zrotation Xrotation Yrotation
            JOINT RightForeArm
            {
              OFFSET -27.4047 0 0
              CHANNELS 6 Xposition Yposition Zposition Zrotation Xrotation Yrotation
              JOINT RightHand
              {
                OFFSET -27.6145 0 0
                CHANNELS 6 Xposition Yposition Zposition Zrotation Xrotation Yrotation
                JOINT RightHandMiddle1
                {
                  OFFSET -12.7755 0 0
                  CHANNELS 6 Xposition Yposition Zposition Zrotation Xrotation Yrotation
                  JOINT RightHandMiddle2
                  {
                    OFFSET -3.614 0 0
                    CHANNELS 6 Xposition Yposition Zposition Zrotation Xrotation Yrotation
                    JOINT RightHandMiddle3
                    {
                      OFFSET -3.4598 0 0
                      CHANNELS 6 Xposition Yposition Zposition Zrotation Xrotation Yrotation
                      End Site
                      {
                        OFFSET -3.6802 0 0
                      }
                    }
                  }
                }
                JOINT RightHandThumb1
                {
                  OFFSET -3.7888 -2.167 3.0031
                  CHANNELS 6 Xposition Yposition Zposition Zrotation Xrotation Yrotation
                  JOINT RightHandThumb2
                  {
                    OFFSET -3.6754 -2.122 2.122
                    CHANNELS 6 Xposition Yposition Zposition Zrotation Xrotation Yrotation
                    JOINT RightHandThumb3
                    {
                      OFFSET -3.3944 -1.9597 1.9598
                      CHANNELS 6 Xposition Yposition Zposition Zrotation Xrotation Yrotation
                      End Site
                      {
                        OFFSET -2.6794 -1.5469 1.5469
                      }
                    }
                  }
                }
                JOINT RightHandIndex1
                {
                  OFFSET -12.2666 -0.2317 2.8221
                  CHANNELS 6 Xposition Yposition Zposition Zrotation Xrotation Yrotation
                  JOINT RightHandIndex2
                  {
                    OFFSET -3.892 0 0
                    CHANNELS 6 Xposition Yposition Zposition Zrotation Xrotation Yrotation
                    JOINT RightHandIndex3
                    {
                      OFFSET -3.4152 0 0
                      CHANNELS 6 Xposition Yposition Zposition Zrotation Xrotation Yrotation
                      End Site
                      {
                        OFFSET -3.078 0 0
                      }
                    }
                  }
                }
                JOINT RightHandRing1
                {
                  OFFSET -12.147 0.0099 -2.2166
                  CHANNELS 6 Xposition Yposition Zposition Zrotation Xrotation Yrotation
                  JOINT RightHandRing2
                  {
                    OFFSET -3.6012 0 0
                    CHANNELS 6 Xposition Yposition Zposition Zrotation Xrotation Yrotation
                    JOINT RightHandRing3
                    {
                      OFFSET -3.3073 0 0
                      CHANNELS 6 Xposition Yposition Zposition Zrotation Xrotation Yrotation
                      End Site
                      {
                        OFFSET -3.6601 0 0
                      }
                    }
                  }
                }
                JOINT RightHandPinky1
                {
                  OFFSET -10.9082 -0.2264 -4.7258
                  CHANNELS 6 Xposition Yposition Zposition Zrotation Xrotation Yrotation
                  JOINT RightHandPinky2
                  {
                    OFFSET -4.1367 0 0
                    CHANNELS 6 Xposition Yposition Zposition Zrotation Xrotation Yrotation
                    JOINT RightHandPinky3
                    {
                      OFFSET -2.5948 0 0
                      CHANNELS 6 Xposition Yposition Zposition Zrotation Xrotation Yrotation
                      End Site
                      {
                        OFFSET -2.9239 0 0
                      }
                    }
                  }
                }
              }
            }
          }
        }
      }
    }
  }
  JOINT RightUpLeg
  {
    OFFSET -9.1245 -6.6564 -0.0554
    CHANNELS 6 Xposition Yposition Zposition Zrotation Xrotation Yrotation
    JOINT RightLeg
    {
      OFFSET -0.2447 -40.5954 -0.5145
      CHANNELS 6 Xposition Yposition Zposition Zrotation Xrotation Yrotation
      JOINT RightFoot
      {
        OFFSET 0.2447 -42.0479 -2.0602
        CHANNELS 6 Xposition Yposition Zposition Zrotation Xrotation Yrotation
        JOINT RightToeBase
        {
          OFFSET -0.3734 -10.4922 12.6407
          CHANNELS 6 Xposition Yposition Zposition Zrotation Xrotation Yrotation
          End Site
          {
            OFFSET 0 0 9.9925
          }
        }
      }
    }
  }
  JOINT LeftUpLeg
  {
    OFFSET 9.1245 -6.6564 -0.0554
    CHANNELS 6 Xposition Yposition Zposition Zrotation Xrotation Yrotation
    JOINT LeftLeg
    {
      OFFSET 0.2447 -40.5954 -0.517
      CHANNELS 6 Xposition Yposition Zposition Zrotation Xrotation Yrotation
      JOINT LeftFoot
      {
        OFFSET -0.2447 -42.048 -2.0576
        CHANNELS 6 Xposition Yposition Zposition Zrotation Xrotation Yrotation
        JOINT LeftToeBase
        {
          OFFSET 0.3734 -10.4922 0
          CHANNELS 6 Xposition Yposition Zposition Zrotation Xrotation Yrotation
          End Site
          {
            OFFSET 0 0 9.9925
          }
        }
      }
    }
  }
}
MOTION
Frames:	4
Frame Time:	0.0166667
0.307897 91.276 1.25051 -2.14849 18.6738 5.40508 0 9.9235 -1.2273 7.58544 14.1019 0.959724 -0.0001 11.6454 -1.4223 3.81834 10.3631 0.0954136 0.0001 13.3602 -1.6265 3.83805 10.359 0.0120152 3.55271e-015 15.0325 0.7929 -0.758416 -9.68309 -0.1691 3.55271e-015 10.3218 3.1424 -7.85006 -28.1771 -2.75386 0.0002 18.4747 6.6364 -1.98785e-016 -3.18055e-015 7.95139e-016 2.9479 7.6817 9.1207 -1.98785e-016 -3.18055e-015 7.95139e-016 -2.9445 7.6817 9.1205 -1.98785e-016 -3.18055e-015 7.95139e-016 6.1058 9.1104 0.7056 -5.38141 1.10904 -4.88339 12.655 -0.2659 -2.6009 -66.1165 7.52019 12.0597 27.4047 0 0 -6.36229e-007 -1.13689e-005 -63.5448 27.6145 0 0 -5.76509 -15.3632 -3.61725 12.7755 0 0 -23.0518 -1.33636 4.49878 3.614 0 0 -39.1567 -1.31925 3.7082 3.4598 7.10543e-015 0 -23.5835 -0.49035 2.34855 3.7888 -2.167 3.0031 1.3904 -9.00727 -14.0605 3.6754 -2.122 2.122 2.43324 9.70637 29.9329 3.3944 -1.9597 1.9598 17.7459 8.44428 34.4487 12.2666 -0.2317 2.8221 -23.8069 5.93585 -16.615 3.892 5.32907e-015 5.32907e-015 -48.4635 -1.97982 4.39707 3.4152 0 1.77636e-015 -48.4634 -1.97982 4.39706 12.147 0.0099 -2.2166 -44.4515 -3.2954 5.84909 3.6012 -7.10543e-015 -3.55271e-015 -63.0078 -3.21081 5.2365 3.3073 0 0 -64.9922 -3.39396 5.32598 10.9082 -0.2264 -4.7258 -57.15 -17.4719 15.1217 4.1367 7.10543e-015 7.10543e-015 -80.3867 -4.898 5.79596 2.5948 0 0 -80.3867 -4.89801 5.79596 -6.1057 9.1105 0.7056 3.55327 2.097 14.458 -12.655 -0.266 -2.6009 20.5321 -7.40235 21.6203 -27.4047 0 0 1.29583e-005 9.20321e-006 65.2998 -27.6145 0 0 -2.45645 5.20938 16.6449 -12.7755 0 7.10543e-015 22.9381 -1.21572 -3.94078 -3.614 0 7.10543e-015 83.5373 -4.14444 -4.6399 -3.4598 0 0 64.4717 -2.6574 -4.21288 -3.7888 -2.167 3.0031 -0.445511 -0.620101 10.4735 -3.6754 -2.122 2.122 -2.86625 9.97117 -30.5227 -3.3944 -1.9597 1.9598 -14.9792 17.6405 -53.2025 -12.2666 -0.2317 2.8221 -0.0226481 7.87103 0.193676 -3.892 0 -3.55271e-015 83.5373 -4.14443 -4.63989 -3.4152 0 -3.55271e-015 22.1329 -0.343784 -1.75765 -12.147 0.0099 -2.2166 43.769 -2.84079 -2.33714 -3.6012 0 0 88.357 -4.53587 -4.66769 -3.3073 -1.42109e-014 7.10543e-015 88.0492 -4.51083 -4.66692 -10.9082 -0.2264 -4.7258 43.6133 -16.5286 -5.05695 -4.1367 0 0 88.069 -4.51242 -4.66696 -2.5948 0 0 88.069 -4.51243 -4.66697 -9.1245 -6.6564 -0.0554 -2.14108 -49.2552 -13.9171 -0.2447 -40.5954 -0.5145 -6.17219 48.2045 5.20512 0.2447 -42.0479 -2.0602 -0.942113 -18.0799 -7.8213 -0.3734 -10.4922 12.6407 -1.10797e-006 -5.7684 3.7993e-006 9.1245 -6.6564 -0.0554 28.6252 -51.331 29.0792 0.2447 -40.5954 -0.517 -3.89193 56.5851 13.0924 -0.2447 -42.048 -2.0576 1.61012 -8.35722 22.9013 0.3734 -10.4922 12.6407 4.59118e-006 -2.91391 2.68545e-005 
0.56367 92.0823 3.52497 -2.178 17.6676 6.32897 1.66533e-016 9.9235 -1.2273 7.17571 13.2117 1.50312 -0.0001 11.6454 -1.4223 3.6003 9.84177 0.352588 0.0001 13.3602 -1.6265 3.62381 9.83836 0.270732 0 15.0325 0.7929 -0.789059 -9.41384 -0.416055 0 10.3218 3.1424 -6.16145 -25.663 -3.37115 0.0002 18.4747 6.6364 -1.68967e-015 0 3.97569e-016 2.9479 7.6817 9.1207 -1.68967e-015 0 3.97569e-016 -2.9445 7.6817 9.1205 -1.68967e-015 0 3.97569e-016 6.1058 9.1104 0.7056 -4.43012 0.942758 -4.90807 12.655 -0.2659 -2.6009 -64.8807 12.2002 15.0769 27.4047 0 0 -1.40643e-006 -1.41167e-005 -65.1177 27.6145 0 0 -7.16652 -15.556 -4.16324 12.7755 0 -1.77636e-015 -23.5937 -1.37916 4.37007 3.614 7.10543e-015 0 -39.9666 -1.37219 3.77229 3.4598 0 3.55271e-015 -23.5835 -0.490352 2.34855 3.7888 -2.167 3.0031 1.39039 -9.00727 -14.0605 3.6754 -2.122 2.122 2.43324 9.70637 29.9329 3.3944 -1.9597 1.9598 17.7459 8.44428 34.4487 12.2666 -0.2317 2.8221 -24.7964 5.64141 -16.0154 3.892 -8.88178e-016 -1.77636e-015 -48.9603 -2.01815 4.43075 3.4152 -7.10543e-015 0 -48.4635 -1.97982 4.39707 12.147 0.0099 -2.2166 -44.4515 -3.2954 5.84908 3.6012 0 3.55271e-015 -63.2664 -3.23451 5.24852 3.3073 1.42109e-014 3.55271e-015 -64.9922 -3.39397 5.32598 10.9082 -0.2264 -4.7258 -57.1501 -17.4719 15.1217 4.1367 -7.10543e-015 7.10543e-015 -80.1577 -4.87485 5.79197 2.5948 0 0 -80.3867 -4.898 5.79596 -6.1057 9.1105 0.7056 2.81523 1.90991 13.8506 -12.655 -0.266 -2.6009 19.5234 -4.17405 18.3313 -27.4047 1.42109e-014 0 9.96795e-006 -4.67702e-006 65.7579 -27.6145 -1.42109e-014 0 -4.71492 5.63867 17.5072 -12.7755 1.42109e-014 -7.10543e-015 27.8713 -1.56788 -4.22364 -3.614 0 0 85.7096 -4.32059 -4.65651 -3.4598 0 0 64.4717 -2.6574 -4.21287 -3.7888 -2.167 3.0031 0.573686 -0.276835 10.058 -3.6754 -2.122 2.122 -2.86625 9.97117 -30.5227 -3.3944 -1.9597 1.9598 -14.9792 17.6405 -53.2025 -12.2666 -0.2317 2.8221 6.79008 7.51918 -0.413326 -3.892 0 7.10543e-015 87.6575 -4.47894 -4.6657 -3.4152 0 -3.55271e-015 22.4737 -0.354332 -1.78334 -12.147 0.0099 -2.2166 47.1979 -3.13918 -2.70012 -3.6012 7.10543e-015 7.10543e-015 88.357 -4.53587 -4.66771 -3.3073 -1.42109e-014 0 88.0492 -4.51082 -4.66693 -10.9082 -0.2264 -4.7258 45.48 -16.315 -5.61432 -4.1367 0 7.10543e-015 88.069 -4.51244 -4.66698 -2.5948 0 0 88.069 -4.51243 -4.66696 -9.1245 -6.6564 -0.0554 -2.02869 -45.2659 -14.3889 -0.2447 -40.5954 -0.5145 -5.96125 46.1912 4.47542 0.2447 -42.0479 -2.0602 -0.646937 -19.0823 -7.49917 -0.3734 -10.4922 12.6407 -1.07606e-006 -5.95216 1.31422e-007 9.1245 -6.6564 -0.0554 27.8781 -49.8686 29.3894 0.2447 -40.5954 -0.517 -3.45761 51.7663 12.0651 -0.2447 -42.048 -2.0576 -0.711967 -6.38091 20.426 0.3734 -10.4922 12.6407 5.87848e-006 -2.94531 7.04259e-006 
0.872421 92.9565 6.01094 -2.11532 16.4059 7.3377 -1.11022e-016 9.9235 -1.2273 6.77729 12.3866 1.89075 -0.0001 11.6454 -1.4223 3.30938 9.24696 0.582293 0.0001 13.3602 -1.6265 3.32945 9.24547 0.517226 7.10543e-015 15.0325 0.7929 -0.79797 -8.68048 -0.743683 -3.55271e-015 10.3218 3.1424 -4.15969 -22.8638 -4.12946 0.0002 18.4747 6.6364 -6.95746e-016 3.18055e-015 -0 2.9479 7.6817 9.1207 -6.95746e-016 3.18055e-015 -0 -2.9445 7.6817 9.1205 -6.95746e-016 3.18055e-015 -0 6.1058 9.1104 0.7056 -2.56016 0.89619 -4.93951 12.655 -0.2659 -2.6009 -63.5633 16.8088 18.1473 27.4047 7.10543e-015 -1.42109e-014 9.55164e-006 8.41663e-006 -67.4464 27.6145 0 0 -9.00992 -14.973 -4.38736 12.7755 0 1.77636e-015 -25.0644 -1.49709 4.01863 3.614 -1.33227e-015 3.55271e-015 -42.2057 -1.52319 3.94554 3.4598 7.10543e-015 -3.55271e-015 -23.5835 -0.490346 2.34855 3.7888 -2.167 3.0031 1.39039 -9.00727 -14.0605 3.6754 -2.122 2.122 2.43324 9.70637 29.9329 3.3944 -1.9597 1.9598 17.7459 8.44428 34.4487 12.2666 -0.2317 2.8221 -27.3555 4.83921 -14.4236 3.892 -8.88178e-016 0 -50.3089 -2.12364 4.52048 3.4152 0 0 -48.4635 -1.97982 4.39707 12.147 0.0099 -2.2166 -44.4515 -3.2954 5.84908 3.6012 -3.55271e-015 0 -63.9905 -3.30113 5.28161 3.3073 -1.42109e-014 0 -64.9922 -3.39396 5.32598 10.9082 -0.2264 -4.7258 -57.1501 -17.4719 15.1217 4.1367 -7.10543e-015 0 -79.5104 -4.80949 5.78021 2.5948 0 0 -80.3867 -4.898 5.79595 -6.1057 9.1105 0.7056 1.97884 1.7326 13.1358 -12.655 -0.266 -2.6009 18.7559 -0.835917 15.6109 -27.4047 1.42109e-014 -7.10543e-015 -3.31779e-006 -8.02781e-007 66.2276 -27.6145 0 3.55271e-015 -7.52462 6.19744 18.035 -12.7755 1.42109e-014 0 33.3764 -1.98804 -4.50231 -3.614 0 0 88.1111 -4.51585 -4.66709 -3.4598 -7.10543e-015 1.77636e-015 64.4717 -2.65739 -4.21286 -3.7888 -2.167 3.0031 1.70464 0.0964349 9.57859 -3.6754 -2.122 2.122 -2.86625 9.97117 -30.5227 -3.3944 -1.9597 1.9598 -14.9792 17.6405 -53.2025 -12.2666 -0.2317 2.8221 14.4628 6.91523 -1.07392 -3.892 0 3.55271e-015 92.2582 -4.8534 -4.66599 -3.4152 7.10543e-015 3.55271e-015 22.8504 -0.36615 -1.81164 -12.147 0.0099 -2.2166 50.986 -3.47503 -3.0913 -3.6012 0 -3.55271e-015 88.357 -4.53587 -4.6677 -3.3073 0 -1.77636e-015 88.0492 -4.51083 -4.66693 -10.9082 -0.2264 -4.7258 47.5455 -16.0658 -6.21945 -4.1367 0 0 88.069 -4.51244 -4.66698 -2.5948 1.42109e-014 0 88.069 -4.51244 -4.66697 -9.1245 -6.6564 -0.0554 -2.07684 -40.5822 -14.8997 -0.2447 -40.5954 -0.5145 -5.70639 43.63 4.05352 0.2447 -42.0479 -2.0602 -0.215642 -19.928 -7.46207 -0.3734 -10.4922 12.6407 6.60359e-007 -6.20439 8.40457e-007 9.1245 -6.6564 -0.0554 26.1837 -47.4566 29.1121 0.2447 -40.5954 -0.517 -3.10582 46.5857 11.3756 -0.2447 -42.048 -2.0576 -3.91713 -3.89094 18.8629 0.3734 -10.4922 12.6407 -1.91454e-006 -2.05688 -1.09775e-005 
1.19466 93.8699 8.85218 -1.98158 14.9722 8.49175 0 9.9235 -1.2273 6.39211 11.3368 2.18242 -0.0001 11.6454 -1.4223 2.94151 8.47219 0.867869 0.0001 13.3602 -1.6265 2.95669 8.47228 0.823853 -7.10543e-015 15.0325 0.7929 -0.796279 -7.59391 -1.18143 0 10.3218 3.1424 -2.23088 -20.0047 -4.86453 0.0002 18.4747 6.6364 2.98177e-016 0 -7.95139e-016 2.9479 7.6817 9.1207 2.98177e-016 0 -7.95139e-016 -2.9445 7.6817 9.1205 2.98177e-016 0 -7.95139e-016 6.1058 9.1104 0.7056 -0.404385 0.882887 -4.98295 12.655 -0.2659 -2.6009 -61.2899 21.2404 21.7352 27.4047 0 1.42109e-014 -1.80954e-006 -1.00216e-005 -70.7606 27.6145 0 0 -10.6726 -13.7826 -4.38736 12.7755 7.10543e-015 -1.77636e-015 -27.2316 -1.67543 3.49511 3.614 0 0 -45.5876 -1.76384 4.19573 3.4598 1.42109e-014 0 -23.5835 -0.490345 2.34854 3.7888 -2.167 3.0031 1.39039 -9.00727 -14.0605 3.6754 -2.122 2.122 2.43324 9.70637 29.9329 3.3944 -1.9597 1.9598 17.7459 8.44428 34.4487 12.2666 -0.2317 2.8221 -30.8482 3.64398 -12.147 3.892 1.77636e-015 -1.77636e-015 -52.2963 -2.28289 4.64815 3.4152 1.42109e-014 8.88178e-016 -48.4635 -1.97982 4.39706 12.147 0.0099 -2.2166 -44.4515 -3.2954 5.84909 3.6012 0 0 -65.1026 -3.40424 5.33077 3.3073 1.42109e-014 7.10543e-015 -64.9922 -3.39397 5.32598 10.9082 -0.2264 -4.7258 -57.15 -17.4719 15.1217 4.1367 2.13163e-014 0 -78.5047 -4.7082 5.76047 2.5948 0 0 -80.3867 -4.898 5.79595 -6.1057 9.1105 0.7056 1.37997 1.55597 12.4839 -12.655 -0.266 -2.6009 18.2721 2.8225 12.2675 -27.4047 -1.42109e-014 7.10543e-015 2.04052e-005 -8.77871e-006 67.2369 -27.6145 0 0 -10.1917 6.65951 17.6713 -12.7755 0 1.77636e-015 39.2628 -2.46463 -4.75429 -3.614 0 3.55271e-015 90.6796 -4.72494 -4.66931 -3.4598 0 -3.55271e-015 64.4717 -2.65738 -4.21288 -3.7888 -2.167 3.0031 2.91344 0.486026 9.04528 -3.6754 -2.122 2.122 -2.86625 9.97117 -30.5227 -3.3944 -1.9597 1.9598 -14.9792 17.6405 -53.2025 -12.2666 -0.2317 2.8221 22.6075 6.03697 -1.71679 -3.892 0 5.32907e-015 97.1811 -5.25246 -4.63292 -3.4152 -7.10543e-015 0 23.2532 -0.378995 -1.84182 -12.147 0.0099 -2.2166 55.0347 -3.83952 -3.49743 -3.6012 0 -3.55271e-015 88.357 -4.53589 -4.66772 -3.3073 -1.42109e-014 1.77636e-015 88.0492 -4.51083 -4.66692 -10.9082 -0.2264 -4.7258 49.765 -15.783 -6.8572 -4.1367 0 1.77636e-015 88.069 -4.51243 -4.66697 -2.5948 1.42109e-014 -3.55271e-015 88.069 -4.51243 -4.66696 -9.1245 -6.6564 -0.0554 -2.32561 -35.1299 -15.4551 -0.2447 -40.5954 -0.5145 -5.39203 40.411 3.58794 0.2447 -42.0479 -2.0602 0.565829 -20.6403 -7.37628 -0.3734 -10.4922 12.6407 2.56174e-006 -6.79364 1.26344e-006 9.1245 -6.6564 -0.0554 23.4146 -44.7555 28.2002 0.2447 -40.5954 -0.517 -2.8429 41.4825 10.4329 -0.2447 -42.048 -2.0576 -4.74015 -0.975561 18.5275 0.3734 -10.4922 12.6407 -4.38778e-006 -2.20972 -7.40106e-006 
